<svg width="32" height="18" viewBox="0 0 32 18" fill="none" xmlns="http://www.w3.org/2000/svg">
<path d="M21.5212 15.5161C20.9611 16.0844 20.9611 17.0056 21.5212 17.5738C22.0812 18.1421 22.9893 18.1421 23.5493 17.5738L32 9.00013L29.9718 6.94244L21.5212 15.5161Z" fill="white"/>
<path d="M29.9719 11.0576L32 9.00013L23.5494 0.426161C22.9893 -0.142054 22.0813 -0.142053 21.5212 0.426162C20.9612 0.994377 20.9612 1.91564 21.5212 2.48385L29.9719 11.0576Z" fill="white"/>
<path d="M0 8.99997C0 8.11607 0.706255 7.39953 1.57747 7.39953H26.8169C27.6882 7.39953 28.3944 8.11607 28.3944 8.99997C28.3944 9.88387 27.6882 10.6004 26.8169 10.6004H1.57747C0.706255 10.6004 0 9.88387 0 8.99997Z" fill="white"/>
</svg>
