<svg width="75" height="48" viewBox="0 0 75 48" fill="none" xmlns="http://www.w3.org/2000/svg">
<path fill-rule="evenodd" clip-rule="evenodd" d="M3.94939 12.0653C3.94939 11.3124 3.29549 10.9365 1.98881 10.9365C0.682136 10.9365 0.0293635 11.3124 0.0293635 12.0653V29.1643C0.0293635 29.9172 0.682136 30.2942 1.98881 30.2942C3.29549 30.2942 3.94826 29.9183 3.94826 29.1654L3.94939 12.0653ZM16.1996 20.3192C16.1996 18.9751 15.7366 17.8999 14.8116 17.1202C13.9138 16.3406 12.7968 15.9368 11.4631 15.9368C10.1293 15.9368 9.01346 16.3406 8.08738 17.1202C7.18954 17.8999 6.7265 18.9751 6.7265 20.3192V29.2178C6.7265 29.944 7.35216 30.2931 8.57753 30.2931C9.80289 30.2931 10.4286 29.944 10.4286 29.2178V20.1307C10.4286 18.6517 12.4976 18.6517 12.4976 20.1307V29.2178C12.4976 29.944 13.1232 30.2931 14.3486 30.2931C15.5739 30.2931 16.1996 29.944 16.1996 29.2178V20.3192ZM18.5679 16.393C18.5679 19.109 19.8475 20.6683 22.7059 22.0391C23.877 22.5768 24.6111 23.0876 24.9657 23.5449C25.3204 24.0022 25.483 24.5934 25.483 25.3463V25.8025C25.483 26.5821 24.9115 27.1477 24.0126 27.1477C23.1418 27.1477 22.5704 26.5833 22.5704 25.8036V24.8354C22.5704 24.1896 21.9436 23.7055 20.6098 23.7055C19.3031 23.7055 18.6503 24.0825 18.6503 24.8354V25.4266C18.6503 26.9591 19.1676 28.1694 20.2009 29.0561C21.2625 29.9428 22.5421 30.4001 24.0397 30.4001C25.5643 30.4001 26.8439 29.9428 27.8784 29.0561C28.94 28.1682 29.4572 26.9591 29.4572 25.4266V24.754C29.4572 22.038 28.1776 20.4798 25.3192 19.1079C24.1492 18.5702 23.414 18.0862 23.0594 17.6289C22.7059 17.1715 22.5421 16.5536 22.5421 15.8007V15.3166C22.3795 13.7038 25.3734 13.7038 25.2097 15.3166V16.3919C25.2097 17.0377 25.8636 17.5218 27.1974 17.5218C28.504 17.5218 29.1579 17.1459 29.1579 16.393V15.6936C29.1579 14.1879 28.6407 13.0055 27.6062 12.1444C26.5988 11.2566 25.3463 10.8272 23.8499 10.8272C22.3524 10.8272 21.0999 11.2577 20.0937 12.1444C19.0863 13.0312 18.569 14.2146 18.569 15.7204L18.5679 16.393ZM31.6888 16.2591C31.0903 16.2591 30.7899 16.77 30.7899 17.7917C30.7899 18.8134 31.0892 19.3243 31.6877 19.3243H33.0215V25.9386C33.0215 28.7349 34.519 30.4013 37.2679 30.4013C38.5204 30.4013 39.5007 30.0789 40.1805 29.4599C40.4256 29.2446 40.534 28.9758 40.534 28.6802C40.534 27.7388 39.8259 26.7985 39.1731 26.7985C38.9823 26.7985 38.7925 26.8521 38.6288 26.987C38.3295 27.2291 38.0302 27.3362 37.7027 27.3362C37.0499 27.3362 36.7224 26.9603 36.7224 26.2341V19.3243H39.3358C39.9343 19.3243 40.2336 18.8134 40.2336 17.7917C40.2336 16.77 39.9343 16.2591 39.3358 16.2591H36.7224V12.9252C36.7224 12.1991 36.0968 11.85 34.8714 11.85C33.6472 11.85 33.0204 12.1991 33.0204 12.9252V16.2591H31.6888ZM51.6154 17.1191C51.6154 16.393 50.9886 16.0439 49.7643 16.0439C48.539 16.0439 47.9133 16.393 47.9133 17.1191V26.2063C47.9133 27.6853 45.8443 27.6853 45.8443 26.2063V17.1191C45.8443 16.393 45.2175 16.0439 43.9933 16.0439C42.7679 16.0439 42.1422 16.393 42.1422 17.1191V26.0178C42.1422 27.3618 42.6053 28.4371 43.5031 29.2167C44.4292 29.9964 45.545 30.4001 46.8788 30.4001C48.2126 30.4001 49.3284 29.9964 50.2274 29.2167C51.1534 28.4371 51.6154 27.3618 51.6154 26.0178V17.1191ZM57.741 15.9368C55.427 15.9368 53.7668 17.7114 53.7668 20.4263V25.9107C53.7668 27.2547 54.2298 28.3311 55.1277 29.1643C56.0538 29.9975 57.1696 30.4013 58.5034 30.4013C59.8371 30.4013 60.9529 29.9975 61.8519 29.1643C62.778 28.3311 63.2399 27.2558 63.2399 25.9107V11.3124C63.2399 10.5862 62.6142 10.2371 61.3889 10.2371C60.1646 10.2371 59.5379 10.5862 59.5379 11.3124V16.4209C59.1019 16.0974 58.5022 15.9368 57.741 15.9368ZM59.5367 26.2063C59.5367 27.6853 57.4677 27.6853 57.4677 26.2063V20.1296C57.4677 18.6506 59.5367 18.6506 59.5367 20.1296V26.2063ZM71.1782 34.5115C71.1805 35.8232 69.9348 37.9648 67.3101 37.9993C66.794 38.006 61.7729 37.9938 61.0026 37.9826C60.2064 37.9715 59.2612 38.8426 59.2228 39.5921C59.1742 40.548 59.9309 41.669 60.849 41.6099C62.1952 41.5229 65.3654 41.7069 66.9442 41.6757C72.268 41.5697 74.9108 38.1087 74.9288 33.8255L75 17.118C75.0034 16.3919 74.3732 16.0428 73.149 16.0428C71.9236 16.0428 71.2979 16.3919 71.2979 17.118V26.2051C71.2979 27.6842 69.2289 27.6842 69.2289 26.2051V17.118C69.2289 16.3919 68.6021 16.0428 67.3779 16.0428C66.1525 16.0428 65.5269 16.3919 65.5269 17.118V25.9096C65.5269 28.6244 67.187 30.4001 69.5011 30.4001C70.2634 30.4001 70.7773 30.2574 71.1726 30.002L71.1782 34.5115ZM50.565 48C51.7193 48.0011 52.2975 47.3575 52.302 46.067C52.3054 44.7765 51.7306 44.1307 50.5775 44.1296L24.3649 44.095C23.2107 44.0939 22.6313 44.7386 22.628 46.0291C22.6246 47.3196 23.1994 47.9654 24.3536 47.9665L50.565 48ZM7.5035 0H67.4524C71.5791 0 74.9548 3.33504 74.9548 7.40958V14.673C74.4048 14.4622 73.7757 14.3685 73.1478 14.3685C72.4465 14.3685 71.744 14.4857 71.1511 14.7522V7.07385C71.1511 5.23233 69.6253 3.72654 67.7608 3.72654H7.19292C5.32834 3.72654 3.8037 5.23344 3.8037 7.07385V9.55115C3.24692 9.34926 2.61561 9.25891 1.98881 9.25891C1.29651 9.25891 0.598563 9.36822 0 9.61918V7.40847C0.00112936 3.33504 3.3768 0 7.5035 0ZM58.1442 41.7315H7.5035C3.3768 41.7315 0.00112936 38.3964 0.00112936 34.3219V31.6092C0.598563 31.8591 1.29651 31.9695 1.98994 31.9695C2.61674 31.9695 3.24692 31.8803 3.80483 31.6773V34.6576C3.80483 36.4991 5.32947 38.0049 7.19405 38.0049H58.0493C57.7478 38.4634 57.5569 38.9809 57.5298 39.5107C57.4903 40.2748 57.7207 41.0689 58.1442 41.7315Z" fill="#7545C9"/>
</svg>
