<svg width="177" height="64" viewBox="0 0 177 64" fill="none" xmlns="http://www.w3.org/2000/svg">
<path d="M73.4329 29.424V19.5327L73.5376 16.66L71.7058 26.5514H70.8714L69.0396 16.66L69.1443 19.5327V29.424H68.3098V14.0723H69.1443L70.6649 21.1347L71.29 25.3913L71.9152 21.1347L73.4358 14.0723H74.2703V29.424H73.4329ZM75.8287 16.2414C75.8287 15.4534 75.9915 14.8574 76.3171 14.4532C76.6428 14.052 77.172 13.8514 77.9105 13.8514C78.6461 13.8514 79.1782 14.052 79.5009 14.4532C79.8265 14.8545 79.9893 15.4505 79.9893 16.2414V27.2289C79.9893 28.0168 79.8265 28.6187 79.5009 29.0286C79.1752 29.4386 78.6432 29.6421 77.9105 29.6421C77.1749 29.6421 76.6428 29.4386 76.3171 29.0286C75.9915 28.6187 75.8287 28.0197 75.8287 27.2289V16.2414ZM79.1578 16.2414C79.1578 15.7296 79.0589 15.3429 78.867 15.0783C78.6722 14.8167 78.3524 14.6829 77.9105 14.6829C77.4656 14.6829 77.1487 14.8138 76.9539 15.0783C76.7591 15.3429 76.6631 15.7296 76.6631 16.2414V27.2289C76.6631 27.7406 76.7591 28.1331 76.9539 28.4006C77.1487 28.671 77.4685 28.8076 77.9105 28.8076C78.3553 28.8076 78.6751 28.6739 78.867 28.4006C79.0618 28.1302 79.1578 27.7406 79.1578 27.2289V16.2414ZM84.778 25.0366H85.6125V27.2289C85.6125 28.0168 85.4497 28.6187 85.124 29.0286C84.7984 29.4386 84.2663 29.6421 83.5336 29.6421C82.798 29.6421 82.2659 29.4386 81.9403 29.0286C81.6146 28.6187 81.4518 28.0197 81.4518 27.2289V16.2414C81.4518 15.4534 81.6146 14.8574 81.9403 14.4532C82.2659 14.052 82.7951 13.8514 83.5336 13.8514C84.2663 13.8514 84.7984 14.052 85.124 14.4532C85.4497 14.8545 85.6125 15.4505 85.6125 16.2414V18.4569H84.778V16.2414C84.778 15.7296 84.6821 15.3429 84.4873 15.0783C84.2925 14.8167 83.9726 14.6829 83.5307 14.6829C83.0859 14.6829 82.7689 14.8138 82.5712 15.0783C82.3764 15.3429 82.2805 15.7296 82.2805 16.2414V27.2289C82.2805 27.7406 82.3793 28.1331 82.5712 28.4006C82.766 28.671 83.0859 28.8076 83.5307 28.8076C83.9726 28.8076 84.2925 28.6739 84.4873 28.4006C84.6821 28.1302 84.778 27.7406 84.778 27.2289V25.0366ZM90.4622 29.424L88.3194 22.164H87.9036V29.424H87.0692V14.0723H87.9036V21.3324H88.3194L90.4622 14.0723H91.3141L89.0259 21.7482L91.3141 29.4269H90.4622V29.424ZM92.1486 16.2414C92.1486 15.4534 92.3114 14.8574 92.637 14.4532C92.9627 14.052 93.4948 13.8514 94.2304 13.8514C94.9631 13.8514 95.4951 14.052 95.8208 14.4532C96.1464 14.8545 96.3092 15.4505 96.3092 16.2414V27.2289C96.3092 28.0168 96.1464 28.6187 95.8208 29.0286C95.4951 29.4386 94.9631 29.6421 94.2304 29.6421C93.4948 29.6421 92.9627 29.4386 92.637 29.0286C92.3114 28.6187 92.1486 28.0197 92.1486 27.2289V16.2414ZM95.4777 16.2414C95.4777 15.7296 95.3817 15.3429 95.1869 15.0783C94.9921 14.8167 94.6723 14.6829 94.2304 14.6829C93.7855 14.6829 93.4686 14.8138 93.2709 15.0783C93.0761 15.3429 92.9801 15.7296 92.9801 16.2414V27.2289C92.9801 27.7406 93.0761 28.1331 93.2709 28.4006C93.4657 28.671 93.7855 28.8076 94.2304 28.8076C94.6723 28.8076 94.9921 28.6739 95.1869 28.4006C95.3817 28.1302 95.4777 27.7406 95.4777 27.2289V16.2414ZM101.825 27.2289C101.825 28.0168 101.662 28.6187 101.336 29.0286C101.008 29.4386 100.479 29.6421 99.743 29.6421C99.0074 29.6421 98.4753 29.4386 98.1497 29.0286C97.8241 28.6187 97.6612 28.0197 97.6612 27.2289V16.2414C97.6612 15.4534 97.8241 14.8574 98.1497 14.4532C98.4753 14.052 99.0074 13.8514 99.743 13.8514C100.479 13.8514 101.008 14.052 101.336 14.4532C101.662 14.8545 101.825 15.4505 101.825 16.2414V19.553C101.825 20.6928 101.479 21.4255 100.784 21.7453C101.479 22.068 101.825 22.8007 101.825 23.9405V27.2289ZM100.993 16.2414C100.993 15.7296 100.897 15.3429 100.702 15.0783C100.508 14.8167 100.191 14.6829 99.7459 14.6829C99.3011 14.6829 98.9812 14.8138 98.7864 15.0783C98.5916 15.3429 98.4957 15.7296 98.4957 16.2414V21.3324H99.7459C100.191 21.3324 100.508 21.1783 100.702 20.873C100.897 20.5648 100.993 20.1258 100.993 19.5559V16.2414ZM100.993 23.9405C100.993 23.3706 100.897 22.9316 100.702 22.6234C100.508 22.3181 100.191 22.164 99.7459 22.164H98.4957V27.2318C98.4957 27.7435 98.5946 28.136 98.7864 28.4035C98.9812 28.6739 99.3011 28.8106 99.7459 28.8106C100.191 28.8106 100.508 28.6768 100.702 28.4035C100.897 28.1331 100.993 27.7435 100.993 27.2318V23.9405ZM106.593 25.0366H107.425V27.2289C107.425 28.0168 107.262 28.6187 106.936 29.0286C106.613 29.4386 106.081 29.6421 105.346 29.6421C104.61 29.6421 104.078 29.4386 103.752 29.0286C103.427 28.6187 103.264 28.0197 103.264 27.2289V16.2414C103.264 15.4534 103.427 14.8574 103.752 14.4532C104.078 14.052 104.61 13.8514 105.346 13.8514C106.081 13.8514 106.613 14.052 106.936 14.4532C107.265 14.8545 107.425 15.4505 107.425 16.2414V18.4569H106.593V16.2414C106.593 15.7296 106.494 15.3429 106.299 15.0783C106.105 14.8167 105.788 14.6829 105.343 14.6829C104.898 14.6829 104.581 14.8138 104.383 15.0783C104.189 15.3429 104.093 15.7296 104.093 16.2414V27.2289C104.093 27.7406 104.192 28.1331 104.383 28.4006C104.578 28.671 104.898 28.8076 105.343 28.8076C105.788 28.8076 106.105 28.6739 106.299 28.4006C106.494 28.1302 106.593 27.7406 106.593 27.2289V25.0366ZM112.274 29.424L110.132 22.164H109.716V29.424H108.881V14.0723H109.716V21.3324H110.132L112.274 14.0723H113.129L110.838 21.7482L113.129 29.4269H112.274V29.424ZM117.395 29.424V20.6492L117.459 17.7765L114.897 28.7437L114.833 29.424H114.063V14.0723H114.897V22.8443L114.833 25.717L117.392 14.7498L117.456 14.0694H118.226V29.4211H117.395V29.424ZM123.224 29.424V20.6492L123.285 17.7765L120.724 28.7437L120.663 29.424H119.892V14.0723H120.724V22.8443L120.663 25.717L123.221 14.7498L123.282 14.0694H124.053V29.4211H123.224V29.424ZM123.535 11.4381C123.535 12.008 123.41 12.4412 123.16 12.7407C122.91 13.0402 122.515 13.1914 121.974 13.1914C121.419 13.1914 121.02 13.0402 120.776 12.7407C120.535 12.4412 120.413 12.0051 120.413 11.4381H121.139C121.139 12.1243 121.416 12.4674 121.974 12.4674C122.529 12.4674 122.808 12.1243 122.808 11.4381H123.535ZM128.783 29.395V14.0404H132.112V14.8952H129.615V29.3921H128.783V29.395ZM132.947 16.2123C132.947 15.4243 133.11 14.8254 133.435 14.4242C133.761 14.0229 134.293 13.8223 135.029 13.8223C135.761 13.8223 136.293 14.0229 136.619 14.4242C136.945 14.8254 137.108 15.4214 137.108 16.2123V27.1998C137.108 27.9877 136.945 28.5896 136.619 28.9966C136.293 29.4037 135.761 29.6101 135.029 29.6101C134.293 29.6101 133.761 29.4066 133.435 28.9966C133.11 28.5867 132.947 27.9877 132.947 27.1998V16.2123ZM136.276 16.2123C136.276 15.7006 136.177 15.3139 135.985 15.0493C135.79 14.7847 135.471 14.6538 135.029 14.6538C134.584 14.6538 134.267 14.7847 134.069 15.0493C133.874 15.3109 133.778 15.7006 133.778 16.2123V27.1998C133.778 27.7115 133.877 28.1011 134.069 28.3744C134.264 28.6448 134.584 28.7786 135.029 28.7786C135.471 28.7786 135.79 28.6419 135.985 28.3744C136.18 28.104 136.276 27.7115 136.276 27.1998V16.2123ZM138.669 29.395V16.2355C138.669 15.4447 138.832 14.8457 139.157 14.4358C139.483 14.0258 140.012 13.8223 140.748 13.8223C141.483 13.8223 142.015 14.0258 142.341 14.4358C142.667 14.8457 142.83 15.4447 142.83 16.2355V21.5883C142.83 22.3762 142.667 22.9781 142.341 23.3851C142.015 23.7951 141.498 24.0015 140.791 24.0015H139.5V29.395H138.669ZM142.001 16.2355C142.001 15.7238 141.902 15.3313 141.71 15.0609C141.515 14.7905 141.196 14.6568 140.751 14.6568C140.309 14.6568 139.989 14.7905 139.794 15.0609C139.599 15.3313 139.503 15.7209 139.503 16.2355V23.1438L140.751 23.1671C141.196 23.1816 141.512 23.0508 141.71 22.7716C141.905 22.4954 142.001 22.1 142.001 21.5883V16.2355ZM143.978 16.2123C143.978 15.4243 144.141 14.8254 144.466 14.4242C144.792 14.0229 145.324 13.8223 146.06 13.8223C146.795 13.8223 147.327 14.0229 147.653 14.4242C147.979 14.8254 148.142 15.4214 148.142 16.2123V27.1998C148.142 27.9877 147.979 28.5896 147.653 28.9966C147.327 29.4066 146.795 29.6101 146.06 29.6101C145.324 29.6101 144.795 29.4066 144.466 28.9966C144.141 28.5867 143.978 27.9877 143.978 27.1998V16.2123ZM147.31 16.2123C147.31 15.7006 147.211 15.3139 147.019 15.0493C146.824 14.7847 146.505 14.6538 146.06 14.6538C145.615 14.6538 145.298 14.7847 145.103 15.0493C144.908 15.3109 144.812 15.7006 144.812 16.2123V27.1998C144.812 27.7115 144.908 28.1011 145.103 28.3744C145.298 28.6448 145.615 28.7786 146.06 28.7786C146.505 28.7786 146.822 28.6419 147.019 28.3744C147.214 28.104 147.31 27.7115 147.31 27.1998V16.2123ZM153.968 31.1715V29.395H149.808V31.1715H149.078V28.5401C149.258 28.5401 149.415 28.4209 149.546 28.1767C149.677 27.9354 149.784 27.6272 149.869 27.2434C149.953 26.8625 150.017 26.438 150.066 25.9728C150.116 25.5047 150.145 25.0511 150.159 24.6121L150.491 15.9913C150.52 15.2906 150.665 14.7527 150.93 14.3805C151.192 14.0084 151.645 13.8223 152.282 13.8223C152.919 13.8223 153.378 14.0084 153.654 14.3805C153.93 14.7527 154.07 15.2906 154.07 15.9913V28.5372H154.695V31.1685H153.968V31.1715ZM153.241 15.9942C153.241 15.5552 153.169 15.2237 153.023 14.9969C152.878 14.7702 152.631 14.6568 152.285 14.6568C151.936 14.6568 151.697 14.7702 151.567 14.9969C151.433 15.2237 151.354 15.5552 151.325 15.9942L150.994 24.615C150.979 24.9784 150.956 25.3564 150.921 25.7431C150.886 26.1327 150.837 26.4991 150.776 26.8538C150.712 27.2056 150.627 27.5254 150.514 27.8191C150.404 28.1098 150.264 28.3541 150.098 28.5431H153.241V15.9942ZM158.966 25.0075H159.798V27.2027C159.798 27.9906 159.635 28.5925 159.309 28.9995C158.984 29.4095 158.452 29.613 157.716 29.613C156.98 29.613 156.448 29.4095 156.123 28.9995C155.797 28.5896 155.634 27.9906 155.634 27.2027V16.2152C155.634 15.4272 155.797 14.8283 156.123 14.4271C156.448 14.0258 156.98 13.8252 157.716 13.8252C158.452 13.8252 158.984 14.0258 159.309 14.4271C159.635 14.8283 159.798 15.4243 159.798 16.2152V18.4307H158.966V16.2152C158.966 15.7035 158.867 15.3168 158.673 15.0522C158.478 14.7876 158.161 14.6568 157.716 14.6568C157.271 14.6568 156.954 14.7876 156.759 15.0522C156.565 15.3139 156.466 15.7035 156.466 16.2152V27.2027C156.466 27.7144 156.565 28.104 156.759 28.3773C156.954 28.6477 157.271 28.7815 157.716 28.7815C158.161 28.7815 158.478 28.6448 158.673 28.3773C158.867 28.1069 158.966 27.7144 158.966 27.2027V25.0075ZM164.648 29.395L162.505 22.1349H162.089V29.395H161.254V14.0404H162.089V21.3004H162.505L164.648 14.0404H165.502L163.211 21.7191L165.502 29.395H164.648ZM166.334 16.2123C166.334 15.4243 166.497 14.8254 166.822 14.4242C167.148 14.0229 167.68 13.8223 168.416 13.8223C169.151 13.8223 169.683 14.0229 170.009 14.4242C170.335 14.8254 170.497 15.4214 170.497 16.2123V27.1998C170.497 27.9877 170.335 28.5896 170.009 28.9966C169.683 29.4066 169.151 29.6101 168.416 29.6101C167.68 29.6101 167.148 29.4066 166.822 28.9966C166.497 28.5867 166.334 27.9877 166.334 27.1998V16.2123ZM169.663 16.2123C169.663 15.7006 169.564 15.3139 169.372 15.0493C169.177 14.7847 168.858 14.6538 168.413 14.6538C167.968 14.6538 167.648 14.7847 167.456 15.0493C167.261 15.3109 167.163 15.7006 167.163 16.2123V27.1998C167.163 27.7115 167.261 28.1011 167.456 28.3744C167.651 28.6448 167.968 28.7786 168.413 28.7786C168.858 28.7786 169.175 28.6419 169.372 28.3744C169.567 28.104 169.663 27.7115 169.663 27.1998V16.2123ZM175.388 20.6201L175.452 17.7474L172.89 28.7146L172.826 29.395H172.056V14.0404H172.89V22.8152L172.826 25.6908L175.388 14.7236L175.452 14.0433H176.222V29.3979H175.388V20.6201ZM175.699 11.4091C175.699 11.9789 175.574 12.4151 175.324 12.7145C175.074 13.014 174.678 13.1652 174.138 13.1652C173.582 13.1652 173.184 13.014 172.94 12.7145C172.698 12.4151 172.576 11.9789 172.576 11.4091H173.303C173.303 12.0952 173.582 12.4412 174.138 12.4412C174.693 12.4412 174.969 12.0952 174.969 11.4091H175.699ZM68.2837 37.6058C68.2837 36.8179 68.4465 36.2189 68.7721 35.8177C69.0978 35.4164 69.6299 35.2158 70.3655 35.2158C71.1011 35.2158 71.6331 35.4164 71.9588 35.8177C72.2844 36.2189 72.4472 36.815 72.4472 37.6058V48.5933C72.4472 49.3812 72.2844 49.9831 71.9588 50.3902C71.6331 50.8001 71.1011 51.0036 70.3655 51.0036C69.6299 51.0036 69.0978 50.8001 68.7721 50.3902C68.4465 49.9802 68.2837 49.3812 68.2837 48.5933V37.6058ZM71.6128 37.6058C71.6128 37.0941 71.5139 36.7074 71.3191 36.4428C71.1243 36.1782 70.8074 36.0474 70.3625 36.0474C69.9177 36.0474 69.5979 36.1782 69.406 36.4428C69.2112 36.7045 69.1152 37.0941 69.1152 37.6058V48.5933C69.1152 49.105 69.2112 49.4946 69.406 49.7679C69.6008 50.0383 69.9177 50.1721 70.3625 50.1721C70.8074 50.1721 71.1243 50.0354 71.3191 49.7679C71.5139 49.4975 71.6128 49.105 71.6128 48.5933V37.6058ZM75.1512 50.7856V36.2887H73.2788V35.4339H77.8581V36.2887H75.9857V50.7856H75.1512ZM82.1874 50.7856L80.0446 43.5255H79.6288V50.7856H78.7943V35.431H79.6288V42.691H80.0446L82.1874 35.431H83.0422L80.7511 43.1097L83.0422 50.7856H82.1874ZM83.9755 50.7856V37.6261C83.9755 36.8353 84.1384 36.2364 84.464 35.8264C84.7897 35.4164 85.3217 35.2129 86.0544 35.2129C86.79 35.2129 87.3221 35.4164 87.6477 35.8264C87.9734 36.2364 88.1362 36.8353 88.1362 37.6261V42.9789C88.1362 43.7668 87.9734 44.3687 87.6477 44.7757C87.3221 45.1857 86.8046 45.3921 86.098 45.3921H84.8071V50.7856H83.9755ZM87.3076 37.6261C87.3076 37.1144 87.2087 36.7219 87.0168 36.4515C86.822 36.1811 86.5022 36.0474 86.0573 36.0474C85.6154 36.0474 85.2956 36.1811 85.1008 36.4515C84.906 36.7219 84.81 37.1115 84.81 37.6261V44.5344L86.0573 44.5577C86.5022 44.5722 86.8191 44.4414 87.0168 44.1622C87.2116 43.886 87.3076 43.4906 87.3076 42.9789V37.6261ZM94.6316 35.431H95.4661V50.7856H94.6316V35.431ZM92.7185 43.2406C92.7185 42.7288 92.6196 42.3392 92.4248 42.0659C92.23 41.7955 91.9131 41.6589 91.4682 41.6589C91.0234 41.6589 90.7065 41.7955 90.5117 42.0659C90.3168 42.3363 90.218 42.7288 90.218 43.2406V48.5933C90.218 49.105 90.3168 49.4946 90.5117 49.7679C90.7065 50.0383 91.0234 50.1721 91.4682 50.1721C91.9131 50.1721 92.23 50.0354 92.4248 49.7679C92.6196 49.4975 92.7185 49.105 92.7185 48.5933V43.2406ZM89.3893 35.431H90.2209V41.246C90.5262 40.9669 90.9565 40.8273 91.5118 40.8273C92.2184 40.8273 92.7359 41.0308 93.0645 41.4408C93.3901 41.8508 93.5529 42.4497 93.5529 43.2377V48.5904C93.5529 49.3783 93.3901 49.9802 93.0645 50.3872C92.7388 50.7972 92.2067 51.0007 91.4711 51.0007C90.7355 51.0007 90.2035 50.7972 89.8778 50.3872C89.5522 49.9773 89.3893 49.3783 89.3893 48.5904V35.431ZM98.2747 50.7856V36.2887H96.4023V35.4339H100.982V36.2887H99.1092V50.7856H98.2747ZM107.163 35.431H107.997V50.7856H107.163V35.431ZM105.25 43.2406C105.25 42.7288 105.151 42.3392 104.956 42.0659C104.761 41.7955 104.444 41.6589 104 41.6589C103.555 41.6589 103.238 41.7955 103.043 42.0659C102.848 42.3363 102.749 42.7288 102.749 43.2406V48.5933C102.749 49.105 102.848 49.4946 103.043 49.7679C103.238 50.0383 103.555 50.1721 104 50.1721C104.444 50.1721 104.761 50.0354 104.956 49.7679C105.151 49.4975 105.25 49.105 105.25 48.5933V43.2406ZM101.918 35.431H102.749V41.246C103.055 40.9669 103.485 40.8273 104.04 40.8273C104.747 40.8273 105.264 41.0308 105.593 41.4408C105.919 41.8508 106.081 42.4497 106.081 43.2377V48.5904C106.081 49.3783 105.919 49.9802 105.593 50.3872C105.267 50.7972 104.735 51.0007 104 51.0007C103.264 51.0007 102.732 50.7972 102.406 50.3872C102.081 49.9773 101.918 49.3783 101.918 48.5904V35.431ZM112.993 42.0107L113.054 39.1381L110.495 50.1052L110.434 50.7856H109.663V35.431H110.495V44.2059L110.434 47.0814L112.995 36.1142L113.057 35.4339H113.827V50.7885H112.993V42.0107ZM113.304 32.7997C113.304 33.3695 113.179 33.8057 112.929 34.1051C112.679 34.4046 112.283 34.5558 111.742 34.5558C111.187 34.5558 110.789 34.4046 110.544 34.1051C110.303 33.8057 110.181 33.3695 110.181 32.7997H110.908C110.908 33.4858 111.184 33.8318 111.742 33.8318C112.298 33.8318 112.577 33.4858 112.577 32.7997H113.304ZM122.003 50.7856L119.86 43.5255H119.444V50.7856H118.613V35.431H119.444V42.691H119.86L122.003 35.431H122.858L120.567 43.1097L122.858 50.7856H122.003ZM123.689 37.6058C123.689 36.8179 123.852 36.2189 124.178 35.8177C124.503 35.4164 125.036 35.2158 125.771 35.2158C126.507 35.2158 127.039 35.4164 127.364 35.8177C127.69 36.2189 127.853 36.815 127.853 37.6058V48.5933C127.853 49.3812 127.69 49.9831 127.364 50.3902C127.039 50.8001 126.507 51.0036 125.771 51.0036C125.036 51.0036 124.506 50.8001 124.178 50.3902C123.852 49.9802 123.689 49.3812 123.689 48.5933V37.6058ZM127.018 37.6058C127.018 37.0941 126.92 36.7074 126.728 36.4428C126.533 36.1782 126.213 36.0474 125.768 36.0474C125.323 36.0474 125.006 36.1782 124.812 36.4428C124.617 36.7045 124.521 37.0941 124.521 37.6058V48.5933C124.521 49.105 124.617 49.4946 124.812 49.7679C125.006 50.0383 125.323 50.1721 125.768 50.1721C126.213 50.1721 126.53 50.0354 126.728 49.7679C126.922 49.4975 127.018 49.105 127.018 48.5933V37.6058ZM133.014 50.7856V37.3848C133.014 36.9458 132.941 36.6143 132.796 36.3875C132.65 36.1608 132.403 36.0474 132.057 36.0474C131.711 36.0474 131.47 36.1608 131.339 36.3875C131.208 36.6143 131.13 36.9458 131.101 37.3848L130.726 47.7152C130.699 48.6951 130.528 49.451 130.217 49.986C129.903 50.5181 129.382 50.7856 128.647 50.7856V49.9511C129.089 49.9511 129.403 49.7534 129.583 49.3609C129.763 48.9655 129.868 48.4159 129.894 47.7152L130.269 37.3848C130.295 36.6841 130.444 36.1462 130.705 35.7741C130.97 35.4019 131.42 35.2158 132.057 35.2158C132.697 35.2158 133.153 35.4019 133.432 35.7741C133.709 36.1462 133.848 36.6841 133.848 37.3848V50.7856H133.014ZM139.114 50.7856V37.3848C139.114 36.9458 139.041 36.6143 138.896 36.3875C138.75 36.1608 138.503 36.0474 138.157 36.0474C137.811 36.0474 137.57 36.1608 137.439 36.3875C137.305 36.6143 137.227 36.9458 137.201 37.3848L136.826 47.7152C136.799 48.6951 136.628 49.451 136.317 49.986C136.006 50.5181 135.479 50.7856 134.744 50.7856V49.9511C135.189 49.9511 135.5 49.7534 135.68 49.3609C135.86 48.9655 135.965 48.4159 135.994 47.7152L136.369 37.3848C136.398 36.6841 136.541 36.1462 136.808 35.7741C137.07 35.4019 137.523 35.2158 138.16 35.2158C138.797 35.2158 139.256 35.4019 139.532 35.7741C139.809 36.1462 139.948 36.6841 139.948 37.3848V50.7856H139.114ZM145.65 48.5933C145.65 49.3812 145.487 49.9831 145.161 50.3902C144.836 50.8001 144.304 51.0036 143.568 51.0036C142.832 51.0036 142.303 50.8001 141.975 50.3902C141.649 49.9802 141.486 49.3812 141.486 48.5933V45.302C141.486 44.1622 141.832 43.4325 142.527 43.1097C141.832 42.787 141.486 42.0572 141.486 40.9145V37.6029C141.486 36.8149 141.649 36.216 141.975 35.8148C142.3 35.4135 142.832 35.2129 143.568 35.2129C144.304 35.2129 144.836 35.4135 145.161 35.8148C145.487 36.216 145.65 36.812 145.65 37.6029V39.8184H144.815V37.6029C144.815 37.0912 144.717 36.7045 144.522 36.4399C144.327 36.1753 144.01 36.0445 143.565 36.0445C143.12 36.0445 142.803 36.1753 142.609 36.4399C142.414 36.7016 142.315 37.0912 142.315 37.6029V40.9145C142.315 41.4844 142.414 41.9235 142.609 42.2316C142.803 42.5369 143.12 42.694 143.565 42.694H144.606V43.5284H143.565C143.12 43.5284 142.803 43.6825 142.609 43.9878C142.414 44.296 142.315 44.735 142.315 45.3049V48.5962C142.315 49.1079 142.414 49.4975 142.609 49.7708C142.803 50.0412 143.12 50.175 143.565 50.175C144.01 50.175 144.327 50.0383 144.522 49.7708C144.717 49.5004 144.815 49.1079 144.815 48.5962V46.401H145.65V48.5933ZM151.372 52.5621V50.7856H147.208V52.5621H146.478V49.9308C146.659 49.9308 146.816 49.8116 146.947 49.5673C147.077 49.326 147.185 49.0178 147.269 48.634C147.354 48.2531 147.418 47.8286 147.467 47.3634C147.516 46.8953 147.548 46.4417 147.56 46.0027L147.894 37.3819C147.921 36.6812 148.066 36.1433 148.331 35.7711C148.595 35.399 149.046 35.2129 149.683 35.2129C150.319 35.2129 150.779 35.399 151.055 35.7711C151.331 36.1433 151.471 36.6812 151.471 37.3819V49.9278H152.096V52.5592H151.372V52.5621ZM150.645 37.3848C150.645 36.9458 150.572 36.6143 150.427 36.3875C150.281 36.1608 150.034 36.0474 149.688 36.0474C149.339 36.0474 149.101 36.1608 148.97 36.3875C148.836 36.6143 148.758 36.9458 148.729 37.3848L148.397 46.0056C148.383 46.3691 148.36 46.747 148.325 47.1337C148.29 47.5233 148.243 47.8897 148.179 48.2444C148.115 48.5962 148.031 48.916 147.921 49.2097C147.81 49.5004 147.671 49.7447 147.505 49.9337H150.648V37.3848H150.645ZM159.219 50.7856L157.076 43.5255H156.661V50.7856H155.826V43.5255H155.39L153.265 50.7856H152.413L154.701 43.1097L152.413 35.431H153.265L155.39 42.691H155.826V35.431H156.661V42.691H157.076L159.219 35.431H160.071L157.783 43.1097L160.071 50.7856H159.219Z" fill="#BDBDBD"/>
<path d="M28.9014 0C29.2328 26.6503 28.0553 32.3636 24.2813 33.6254C20.5044 34.8873 19.6671 23.987 20.3009 26.3305C21.1121 29.3398 23.6765 32.7793 25.581 26.095C27.4854 19.4106 27.6628 17.3695 28.9014 0ZM54.0863 61.997C47.6665 64.6806 1.32646 65.2243 0.448393 60.1129C-0.429677 55.0015 0.116935 40.2052 0.93104 42.5486C1.80329 45.0636 0.771127 58.9121 5.96105 60.1711C11.1481 61.4271 47.5444 61.4155 54.0863 61.997ZM35.3909 31.5698C33.7104 38.0071 32.7393 49.5412 37.0511 49.8814C41.3601 50.2245 53.7316 50.2332 51.4869 49.4365C49.0795 48.5817 37.7547 49.6517 36.3446 44.4937C34.9315 39.3329 35.7951 37.8675 35.3909 31.5698ZM20.3649 31.1046C22.0454 37.5448 23.5021 48.823 18.6291 49.6168C13.7561 50.4105 2.02427 49.768 4.26887 48.9713C6.67629 48.1165 18.1203 49.1545 19.4025 44.1797C20.6818 39.2021 19.9607 37.4023 20.3649 31.1046ZM29.6544 19.0471C29.6137 24.6383 29.4363 32.4101 32.4049 33.6342C35.3764 34.8611 36.048 24.115 35.4753 26.3654C32.2043 39.2747 29.7562 20.5649 29.6544 19.0471Z" fill="#BDBDBD"/>
</svg>
