<svg width="197" height="54" viewBox="0 0 197 54" fill="none" xmlns="http://www.w3.org/2000/svg">
<path fill-rule="evenodd" clip-rule="evenodd" d="M106.643 15.5291C106.281 15.1625 106.098 14.7134 106.098 14.1701C106.098 13.6265 106.281 13.1777 106.643 12.8247C107.006 12.458 107.467 12.281 108.025 12.281C108.582 12.281 109.043 12.458 109.406 12.8247C109.768 13.1777 109.95 13.6265 109.95 14.1701C109.95 14.7134 109.768 15.1625 109.406 15.5291C109.043 15.8956 108.582 16.0726 108.025 16.0726C107.467 16.0726 107.006 15.8956 106.643 15.5291ZM156.557 14.1771L159.745 17.5682H162.285L159.096 14.1771L162.285 10.7861H159.746L156.557 14.1771V10.7861H154.59V17.5682H156.557V14.1771ZM123.221 14.1771L126.409 17.5682H128.948L125.76 14.1771L128.949 10.7861H126.41L123.221 14.1771V10.7861H121.254V17.5682H123.221V14.1771ZM94.5807 17.5682V12.7229L96.4161 16.9856V16.9867L96.6666 17.5682H98.1179L98.3686 16.9867V16.9856L100.231 12.6583V17.5682H102.212V8.05454H100.133L97.3918 14.6401L94.65 8.05454H92.5713V17.5682H94.5807ZM104.16 14.1701C104.16 15.189 104.523 16.0317 105.248 16.7248C105.974 17.4045 106.894 17.7444 108.025 17.7444C109.154 17.7444 110.075 17.4045 110.801 16.7248C111.526 16.0317 111.889 15.189 111.889 14.1701C111.889 13.1777 111.526 12.3355 110.801 11.6424C110.075 10.9493 109.154 10.6092 108.025 10.6092C106.894 10.6092 105.974 10.9493 105.248 11.6424C104.523 12.322 104.16 13.164 104.16 14.1701ZM117.018 17.7444C117.84 17.7444 118.566 17.5812 119.222 17.2412V15.6108C118.678 15.9228 118.051 16.0726 117.339 16.0726C116.739 16.0726 116.222 15.8956 115.805 15.5426C115.385 15.1889 115.177 14.7272 115.177 14.1701C115.177 13.6129 115.385 13.1505 115.79 12.811C116.209 12.458 116.725 12.281 117.339 12.281C117.911 12.281 118.511 12.4171 119.11 12.6886V11.0582C118.497 10.759 117.813 10.6092 117.046 10.6092C116 10.6092 115.107 10.9357 114.354 11.5879C113.614 12.2266 113.237 13.083 113.237 14.1564C113.237 15.2299 113.614 16.0998 114.354 16.7661C115.093 17.418 115.985 17.7444 117.018 17.7444ZM131.461 15.5291C131.098 15.1625 130.917 14.7134 130.917 14.1701C130.917 13.6265 131.098 13.1777 131.461 12.8247C131.824 12.458 132.284 12.281 132.843 12.281C133.4 12.281 133.861 12.458 134.224 12.8247C134.586 13.1777 134.767 13.6265 134.767 14.1701C134.767 14.7134 134.586 15.1625 134.224 15.5291C133.861 15.8956 133.4 16.0726 132.843 16.0726C132.284 16.0726 131.824 15.8956 131.461 15.5291ZM128.977 14.1701C128.977 15.189 129.34 16.0317 130.066 16.7248C130.792 17.4045 131.712 17.7444 132.843 17.7444C133.972 17.7444 134.893 17.4045 135.619 16.7248C136.344 16.0317 136.708 15.189 136.708 14.1701C136.708 13.1777 136.344 12.3355 135.619 11.6424C134.893 10.9493 133.972 10.6092 132.843 10.6092C131.712 10.6092 130.792 10.9493 130.066 11.6424C129.34 12.322 128.977 13.164 128.977 14.1701ZM142.617 17.5682C144.235 17.5682 145.157 16.8474 145.157 15.7059C145.157 14.8495 144.71 14.2652 143.832 13.9659C144.403 13.6809 144.682 13.2049 144.682 12.5255C144.682 11.5335 143.901 10.7861 142.45 10.7861H138.516V17.5682H142.617ZM140.455 14.7H142.129C142.813 14.7 143.147 14.9584 143.147 15.461C143.147 15.9642 142.813 16.2222 142.129 16.2222H140.455V14.7ZM140.455 12.1044H141.822C142.45 12.1044 142.758 12.3355 142.758 12.7975C142.758 13.2593 142.45 13.4904 141.822 13.4904H140.455V12.1044ZM150.354 17.7444C151.178 17.7444 151.904 17.5812 152.559 17.2412V15.6108C152.015 15.9228 151.387 16.0726 150.675 16.0726C150.075 16.0726 149.56 15.8956 149.141 15.5426C148.722 15.1889 148.513 14.7272 148.513 14.1701C148.513 13.6129 148.722 13.1505 149.127 12.811C149.545 12.458 150.061 12.281 150.675 12.281C151.248 12.281 151.847 12.4171 152.448 12.6886V11.0582C151.833 10.759 151.15 10.6092 150.382 10.6092C149.336 10.6092 148.443 10.9357 147.69 11.5879C146.95 12.2266 146.573 13.083 146.573 14.1564C146.573 15.2299 146.95 16.0998 147.69 16.7661C148.429 17.418 149.321 17.7444 150.354 17.7444ZM165.267 17.5682L168.419 13.5721V17.5682H170.359V10.7861H168.516L165.364 14.7816V10.7861H163.425V17.5682H165.267ZM174.483 17.5682L177.636 13.5721V17.5682H179.575V10.7861H177.733L174.58 14.7816V10.7861H172.642V17.5682H174.483ZM176.102 10.0386C176.813 10.0386 177.413 9.83443 177.886 9.41336C178.361 8.99228 178.598 8.43469 178.613 7.71436H177.12C177.106 8.31287 176.715 8.70674 176.087 8.70674C175.459 8.70674 175.054 8.31287 175.054 7.71436H173.575C173.59 9.14131 174.636 10.0386 176.102 10.0386ZM94.2597 31.9592L99.0455 25.721V31.9592H101.04V22.446H99.3107L94.5807 28.6432V22.446H92.5713V31.9592H94.2597ZM105.416 31.9592V29.2955H108.276V31.9592H110.243V25.1777H108.276V27.6918H105.416V25.1777H103.448V31.9592H105.416ZM115.846 32.1359C116.67 32.1359 117.395 31.9727 118.051 31.6328V30.0024C117.506 30.3146 116.878 30.4641 116.166 30.4641C115.567 30.4641 115.051 30.2874 114.632 29.9342C114.214 29.5812 114.004 29.1188 114.004 28.5615C114.004 28.0045 114.214 27.542 114.619 27.2025C115.037 26.8494 115.553 26.6728 116.166 26.6728C116.739 26.6728 117.339 26.8082 117.939 27.0802V25.4498C117.325 25.1505 116.642 25.0007 115.874 25.0007C114.828 25.0007 113.935 25.3272 113.182 25.9797C112.442 26.6184 112.065 27.4746 112.065 28.5481C112.065 29.6215 112.442 30.4913 113.182 31.1572C113.922 31.8095 114.814 32.1359 115.846 32.1359ZM123.473 31.9592V26.7816H125.677V25.1777H119.329V26.7816H121.506V31.9592H123.473ZM129.033 31.9592L132.186 27.9638V31.9592H134.126V25.1777H132.283L129.131 29.1731V25.1777H127.192V31.9592H129.033ZM139.798 31.9592V26.7816H142.003V25.1777H135.655V26.7816H137.831V31.9592H139.798ZM144.695 34.7595C145.937 34.7595 146.867 34.0699 147.471 32.6658L150.695 25.1777H148.616L146.871 29.635L145.03 25.1777H142.909L145.909 31.7279C145.504 32.6658 145.072 33.0869 144.36 33.0869C143.983 33.0869 143.621 32.9919 143.299 32.8156V34.4868C143.649 34.6636 144.123 34.7595 144.695 34.7595ZM155.854 31.9592V26.7816H158.059V25.1777H151.711V26.7816H153.887V31.9592H155.854ZM94.5807 46.1084V38.348H98.7524V46.1084H100.748V36.5952H92.5713V46.1084H94.5807ZM106.476 46.2858C107.299 46.2858 108.025 46.1219 108.681 45.7819V44.1514C108.136 44.4636 107.508 44.6132 106.796 44.6132C106.197 44.6132 105.68 44.437 105.262 44.0834C104.843 43.7303 104.635 43.2683 104.635 42.7115C104.635 42.1536 104.844 41.6912 105.248 41.3517C105.666 40.9992 106.182 40.8218 106.796 40.8218C107.369 40.8218 107.969 40.9577 108.569 41.2294V39.5989C107.955 39.2996 107.271 39.1499 106.503 39.1499C105.457 39.1499 104.564 39.4771 103.811 40.1286C103.072 40.7673 102.694 41.6237 102.694 42.697C102.694 43.7706 103.069 44.6451 103.811 45.3064C104.547 45.9623 105.443 46.2858 106.476 46.2858ZM112.553 46.1084L115.706 42.1129V46.1084H117.646V39.3273H115.804L112.651 43.3222V39.3273H110.711V46.1084H112.553ZM119.439 39.3273L121.867 42.5747L119.202 46.1084H121.379L123.011 43.9338L124.63 46.1084H126.834L124.183 42.561L126.625 39.3273H124.448L123.039 41.2294L121.644 39.3273H119.439ZM130.205 44.0702C129.843 43.7043 129.661 43.2542 129.661 42.7115C129.661 42.1674 129.846 41.7213 130.205 41.3653C130.572 41.0028 131.028 40.8218 131.586 40.8218C132.144 40.8218 132.602 41.0028 132.967 41.3653C133.326 41.7213 133.511 42.1674 133.511 42.7115C133.511 43.2542 133.33 43.7036 132.967 44.0702C132.605 44.437 132.144 44.6132 131.586 44.6132C131.028 44.6132 130.567 44.4363 130.205 44.0702ZM127.721 42.7115C127.721 43.7298 128.081 44.5766 128.81 45.2655C129.531 45.9481 130.455 46.2858 131.586 46.2858C132.716 46.2858 133.641 45.9481 134.362 45.2655C135.091 44.5766 135.451 43.7298 135.451 42.7115C135.451 41.7183 135.089 40.8758 134.362 40.183C133.637 39.4901 132.716 39.1499 131.586 39.1499C130.455 39.1499 129.538 39.4935 128.81 40.183C128.088 40.8663 127.721 41.7048 127.721 42.7115ZM143.886 44.6267C143.566 44.6267 143.398 44.4501 143.398 44.1105V41.8137C143.398 40.9849 143.088 40.335 142.477 39.8565C141.874 39.3846 141.068 39.1499 140.078 39.1499C139.059 39.1499 138.207 39.3273 137.496 39.694V41.2979C138.152 40.917 138.863 40.7266 139.602 40.7266C140.831 40.7266 141.445 41.1482 141.445 42.0042V42.208C140.887 41.9225 140.217 41.7869 139.436 41.7869C138.682 41.7869 138.04 41.977 137.496 42.3578C136.953 42.7372 136.686 43.2951 136.686 44.0154C136.686 45.388 137.747 46.2858 139.254 46.2858C140.245 46.2858 141.04 45.9723 141.653 45.3613C141.919 45.9451 142.435 46.2306 143.23 46.2306C143.691 46.2306 144.04 46.1356 144.291 45.9451V44.5452C144.193 44.5995 144.054 44.6267 143.886 44.6267ZM141.445 44.1105C141.082 44.5723 140.551 44.8037 139.869 44.8037C139.142 44.8037 138.627 44.518 138.627 43.9201C138.627 43.3629 139.157 43.0372 139.994 43.0372C140.566 43.0372 141.04 43.1725 141.445 43.4311V44.1105ZM147.982 46.1084V43.4446H150.843V46.1084H152.81V39.3273H150.843V41.8409H147.982V39.3273H146.016V46.1084H147.982ZM161.719 44.6267C161.399 44.6267 161.231 44.4501 161.231 44.1105V41.8137C161.231 40.9849 160.921 40.335 160.31 39.8565C159.708 39.3846 158.902 39.1499 157.91 39.1499C156.892 39.1499 156.041 39.3273 155.33 39.694V41.2979C155.986 40.917 156.696 40.7266 157.436 40.7266C158.664 40.7266 159.278 41.1482 159.278 42.0042V42.208C158.719 41.9225 158.05 41.7869 157.269 41.7869C156.516 41.7869 155.874 41.978 155.33 42.3578C154.786 42.738 154.52 43.2951 154.52 44.0154C154.52 45.388 155.581 46.2858 157.088 46.2858C158.078 46.2858 158.874 45.9723 159.487 45.3613C159.752 45.9451 160.268 46.2306 161.064 46.2306C161.524 46.2306 161.874 46.1356 162.124 45.9451V44.5452C162.027 44.5995 161.887 44.6267 161.719 44.6267ZM159.278 44.1105C158.915 44.5723 158.385 44.8037 157.701 44.8037C156.976 44.8037 156.46 44.518 156.46 43.9201C156.46 43.3629 156.989 43.0372 157.827 43.0372C158.399 43.0372 158.874 43.1725 159.278 43.4311V44.1105ZM168.638 40.9305V46.1084H170.605V39.3273H164.932L164.891 41.3245C164.868 42.4511 164.831 43.0235 164.668 43.6623C164.512 44.272 164.221 44.5317 163.761 44.5317C163.607 44.5317 163.467 44.518 163.357 44.4773V46.041C163.51 46.1219 163.762 46.1705 164.096 46.1632C165.477 46.1309 166.148 45.4011 166.481 44.2602C166.719 43.4453 166.774 42.8202 166.802 41.8816L166.83 40.9305H168.638ZM174.528 46.1084L177.681 42.1129V46.1084H179.621V39.3273H177.778L174.626 43.3222V39.3273H172.687V46.1084H174.528ZM184.344 46.2858C185.377 46.2858 186.217 46.0816 186.842 45.6741C187.484 45.2555 187.804 44.7221 187.804 44.0834C187.804 43.227 187.247 42.6836 186.521 42.4666C187.191 42.249 187.525 41.7593 187.525 41.0117C187.525 40.4818 187.232 40.0316 186.661 39.6798C186.091 39.328 185.377 39.1499 184.526 39.1499C183.451 39.1499 182.545 39.3131 181.833 39.6396V41.1341C182.489 40.8218 183.242 40.6722 184.093 40.6722C185.042 40.6722 185.516 40.8898 185.516 41.3245C185.516 41.7183 185.179 41.9225 184.512 41.9225H183.145V43.3086H184.512C185.335 43.3086 185.74 43.5262 185.74 43.9746C185.74 44.4773 185.125 44.7628 184.066 44.7628C183.173 44.7628 182.364 44.586 181.638 44.2193V45.7682C182.349 46.1084 183.242 46.2858 184.344 46.2858ZM196.309 44.6267C195.988 44.6267 195.821 44.4501 195.821 44.1105V41.8137C195.821 40.9849 195.51 40.3346 194.9 39.8565C194.299 39.3859 193.491 39.1499 192.5 39.1499C191.482 39.1499 190.63 39.3273 189.919 39.694V41.2979C190.575 40.917 191.286 40.7266 192.026 40.7266C193.254 40.7266 193.868 41.15 193.868 42.0042V42.208C193.309 41.9225 192.64 41.7869 191.859 41.7869C191.106 41.7869 190.463 41.9785 189.919 42.3578C189.376 42.7368 189.11 43.2951 189.11 44.0154C189.11 45.388 190.17 46.2858 191.678 46.2858C192.668 46.2858 193.463 45.9723 194.077 45.3613C194.342 45.9451 194.858 46.2306 195.653 46.2306C196.113 46.2306 196.462 46.1356 196.714 45.9451V44.5452C196.616 44.5995 196.477 44.6267 196.309 44.6267ZM193.868 44.1105C193.505 44.5723 192.975 44.8037 192.291 44.8037C191.566 44.8037 191.05 44.518 191.05 43.9201C191.05 43.3629 191.579 43.0372 192.417 43.0372C192.989 43.0372 193.463 43.1725 193.868 43.4311V44.1105Z" fill="#BDBDBD"/>
<path fill-rule="evenodd" clip-rule="evenodd" d="M76.1786 7.71427H78.1072V46.2857H76.1786V7.71427Z" fill="#BDBDBD"/>
<path d="M25.0544 18.6968L16.7138 32.683H19.8514L25.0193 24.0175C26.7366 26.8977 28.4012 29.7613 30.1238 32.6501H33.3755C30.823 28.3699 28.2702 24.0892 25.7177 19.8089L25.0544 18.6968ZM25.0544 6.59806L30.2236 15.2903L28.6028 18.0078L25.0544 12.0573L10.7745 36.0028H17.8717L16.2674 38.6931H5.93922L25.0544 6.59806ZM35.7776 12.6166L54.8929 44.6701H44.4881L42.8836 41.98C45.273 41.98 47.6622 41.98 50.0517 41.98C45.2874 33.9747 40.5426 25.9787 35.7825 17.9894C34.5838 19.9993 33.3855 22.0085 32.1871 24.0179L30.5828 21.3277C32.3146 18.4236 34.0452 15.5214 35.7776 12.6166ZM32.1983 11.9791L25.0544 0L0 42.0129H7.24711C4.84805 46.0123 2.44312 49.9986 0.0569513 54H50.0519L46.4681 47.9899H60.8322L35.7776 5.97714L32.1983 11.9791ZM35.7778 24.6359L34.1668 27.3375L39.3146 35.9699H29.1327L27.5284 38.6602C33.0584 38.6602 38.5881 38.6602 44.1182 38.6602L35.7778 24.6359ZM14.2875 42.0129H11.2174L6.01038 50.6803H44.1128C42.3835 47.7801 40.6537 44.8799 38.9243 41.98H35.6954C36.8903 43.9833 38.0846 45.9865 39.2795 47.9899H10.7231L14.2875 42.0129ZM16.6622 44.6701H33.3406L31.736 41.98H21.5892L26.6588 33.4789L25.0544 30.7887L16.6622 44.6701Z" fill="white"/>
<path fill-rule="evenodd" clip-rule="evenodd" d="M25.0205 18.6968L16.6912 32.683H19.8246L24.9854 24.0175C26.7005 26.8977 28.3628 29.7613 30.0831 32.6501H33.3303C30.7814 28.3699 28.232 24.0892 25.683 19.8089L25.0205 18.6968ZM25.0205 6.59806L30.1828 15.2903L28.5643 18.0078L25.0205 12.0573L10.76 36.0028H17.8476L16.2454 38.6931H5.9312L25.0205 6.59806ZM35.7292 12.6166L54.8188 44.6701H44.428L42.8257 41.98C45.2119 41.98 47.5979 41.98 49.9841 41.98C45.2262 33.9747 40.4879 25.9787 35.7342 17.9894C34.5372 19.9993 33.3405 22.0085 32.1436 24.0179L30.5414 21.3277C32.2709 18.4236 33.9992 15.5214 35.7292 12.6166ZM32.1548 11.9791L25.0205 0L0 42.0129H7.23732C4.84151 46.0123 2.43989 49.9986 0.0569513 54H49.9843L46.4053 47.9899H60.75L35.7292 5.97714L32.1548 11.9791ZM35.7295 24.6359L34.1206 27.3375L39.2616 35.9699H29.0934L27.4912 38.6602C33.0138 38.6602 38.5359 38.6602 44.0586 38.6602L35.7295 24.6359ZM14.2682 42.0129H11.2023L6.00226 50.6803H44.0532C42.3264 47.7801 40.5988 44.8799 38.8717 41.98H35.6471C36.8404 43.9833 38.0331 45.9865 39.2265 47.9899H10.7086L14.2682 42.0129ZM16.6397 44.6701H33.2955L31.6932 41.98H21.56L26.6228 33.4789L25.0205 30.7887L16.6397 44.6701Z" fill="#BDBDBD"/>
</svg>
